<?xml version="1.0" encoding="utf-8"?>
<!-- Generator: Adobe Illustrator 23.0.6, SVG Export Plug-In . SVG Version: 6.00 Build 0)  -->
<svg version="1.1" id="Layer_1" xmlns="http://www.w3.org/2000/svg" xmlns:xlink="http://www.w3.org/1999/xlink" x="0px" y="0px"
	 viewBox="0 0 100 100" style="enable-background:new 0 0 100 100;" xml:space="preserve">
<style type="text/css">
	.st0{fill:#56BA5A;}
</style>
<path id="Path_2" class="st0" d="M57.24,43.92v0.64c-0.05,10.41-0.11,20.82-0.16,31.23c0.05,1.89-0.61,3.73-1.85,5.15
	c-2.23,2.52-6.07,2.76-8.59,0.53c-0.71-0.63-1.27-1.41-1.62-2.3c-0.47-1.09-0.7-2.26-0.67-3.45c0.04-9.19,0.08-18.38,0.13-27.57
	c0-1.28,0-2.56,0-3.84c0-0.16,0-0.31,0-0.59c-0.21,0.17-0.34,0.26-0.47,0.38c-1.31,1.29-2.59,2.62-3.93,3.87
	c-0.68,0.58-1.39,1.11-2.15,1.59c-2.19,1.51-5.13,1.33-7.12-0.42c-2.29-1.74-3.1-4.82-1.96-7.47c0.5-1.01,1.2-1.91,2.06-2.63
	c5-4.38,9.99-8.76,15.01-13.11c2.81-2.56,7.11-2.58,9.94-0.05c5.11,4.38,10.2,8.78,15.26,13.21c2.04,1.68,2.99,4.36,2.45,6.95
	c-0.51,2.86-2.97,4.96-5.87,5.01c-1.32,0.05-2.61-0.31-3.72-1.01c-1.66-1.09-3.17-2.39-4.49-3.87c-0.63-0.67-1.26-1.35-1.89-2.03
	c-0.08-0.12-0.15-0.24-0.2-0.38L57.24,43.92z"/>
</svg>
